HIERARCHY
ROOT Hips
{
    OFFSET 0.000000 0.000000 0.000000
    CHANNELS 6 Xposition Yposition Zposition Zrotation Xrotation Yrotation
    JOINT Spine
    {
        OFFSET -0.000000 6.993131 0.000000
        CHANNELS 3 Zrotation Xrotation Yrotation
        JOINT Spine1
        {
            OFFSET -0.000000 20.649729 0.000000
            CHANNELS 3 Zrotation Xrotation Yrotation
            JOINT Neck
            {
                OFFSET -0.000000 20.564924 1.869539
                CHANNELS 3 Zrotation Xrotation Yrotation
                JOINT Head
                {
                    OFFSET -0.000000 11.939490 -1.705642
                    CHANNELS 3 Zrotation Xrotation Yrotation
                    End Site
                    {
                        OFFSET -0.000000 21.320518 0.000000
                    }
                }
            }
            JOINT LeftShoulder
            {
                OFFSET 3.446977 19.850397 -0.038759
                CHANNELS 3 Zrotation Xrotation Yrotation
                JOINT LeftArm
                {
                    OFFSET 7.083611 0.000000 0.000000
                    CHANNELS 3 Zrotation Xrotation Yrotation
                    JOINT LeftForeArm
                    {
                        OFFSET 32.044487 0.000000 0.000000
                        CHANNELS 3 Zrotation Xrotation Yrotation
                        JOINT LeftHand
                        {
                            OFFSET 22.068741 0.000000 0.000000
                            CHANNELS 3 Zrotation Xrotation Yrotation
                            End Site
                            {
                                OFFSET 12.792312 0.000000 0.000000
                            }
                        }
                    }
                }
            }
            JOINT RightShoulder
            {
                OFFSET -3.365844 19.850397 -0.038759
                CHANNELS 3 Zrotation Xrotation Yrotation
                JOINT RightArm
                {
                    OFFSET -7.083611 0.000000 0.000000
                    CHANNELS 3 Zrotation Xrotation Yrotation
                    JOINT RightForeArm
                    {
                        OFFSET -32.044487 0.000000 0.000000
                        CHANNELS 3 Zrotation Xrotation Yrotation
                        JOINT RightHand
                        {
                            OFFSET -22.068741 0.000000 0.000000
                            CHANNELS 3 Zrotation Xrotation Yrotation
                            End Site
                            {
                                OFFSET -12.792312 0.000000 0.000000
                            }
                        }
                    }
                }
            }
        }
    }
    JOINT LeftUpLeg
    {
        OFFSET 8.528208 0.000000 0.000000
        CHANNELS 3 Zrotation Xrotation Yrotation
        JOINT LeftLeg
        {
            OFFSET -0.000000 -31.874865 0.000000
            CHANNELS 3 Zrotation Xrotation Yrotation
            JOINT LeftFoot
            {
                OFFSET -0.000000 -38.221939 0.000000
                CHANNELS 3 Zrotation Xrotation Yrotation
                JOINT LeftToeBase
                {
                    OFFSET -0.000000 -5.543335 12.792312
                    CHANNELS 3 Zrotation Xrotation Yrotation
                    End Site
                    {
                        OFFSET -0.000000 0.000000 3.411283
                    }
                }
            }
        }
    }
    JOINT RightUpLeg
    {
        OFFSET -8.528208 0.000000 0.000000
        CHANNELS 3 Zrotation Xrotation Yrotation
        JOINT RightLeg
        {
            OFFSET -0.000000 -31.874865 0.000000
            CHANNELS 3 Zrotation Xrotation Yrotation
            JOINT RightFoot
            {
                OFFSET -0.000000 -38.221939 0.000000
                CHANNELS 3 Zrotation Xrotation Yrotation
                JOINT RightToeBase
                {
                    OFFSET -0.000000 -5.543335 12.792312
                    CHANNELS 3 Zrotation Xrotation Yrotation
                    End Site
                    {
                        OFFSET -0.000000 0.000000 3.411283
                    }
                }
            }
        }
    }
}
MOTION
Frames:    12
Frame Time:    0.008333
23.570019    76.849915    32.220631    -4.902296    1.345785    93.528839    -10.718016    -4.200489    0.310050    10.839925    6.833991    0.055107    13.058631    11.373899    -1.673278    -12.412385    -6.486164    -4.804623    9.451321    4.350354    -15.536633    -35.926960    28.532003    -40.004669    19.167265    -34.593021    -121.819603    13.944773    -3.179471    -17.605886    -3.860276    -0.736084    -7.535677    12.762272    10.513271    28.466343    -25.159592    -48.159683    114.882507    2.175865    -12.968122    10.914992    -3.875848    -17.311506    0.692614    6.151733    25.167915    -2.531046    -6.147137    -1.226456    -7.847641    0.000000    0.000000    0.000000    -9.976445    -13.336848    -3.197826    8.441347    20.938419    -9.295310    7.548648    -3.372137    -3.284757    0.000000    0.000000    0.000000    
23.456474    76.885735    32.310478    -5.077014    1.331387    95.265915    -10.537839    -4.765519    0.674401    10.551234    7.710347    0.401163    12.768953    10.860061    -1.977591    -12.274568    -6.534782    -5.145687    8.553840    4.482362    -15.804453    -36.453571    28.724436    -40.666348    18.856684    -34.518623    -122.482498    14.047437    -3.224778    -17.652487    -5.147917    -1.625622    -7.840011    12.245392    9.648718    28.429482    -25.505531    -47.439983    113.112602    3.006868    -12.712343    10.882469    -4.013244    -17.567335    0.881594    6.289745    24.834837    -3.371488    -6.116646    -0.875086    -8.281538    0.000000    0.000000    0.000000    -10.133630    -13.133515    -3.442742    8.560456    20.832024    -9.712267    7.765314    -3.563442    -4.033289    0.000000    0.000000    0.000000    
23.341890    76.909378    32.384537    -5.095305    1.365460    96.948593    -10.211597    -5.279103    1.093283    10.018682    8.810028    0.791625    12.865409    10.267441    -2.284332    -12.676281    -6.475828    -5.613871    7.981617    4.362435    -16.105394    -36.962612    29.490631    -41.164371    19.212755    -35.382610    -122.679276    13.217438    -3.245382    -17.590149    -6.280540    -2.416759    -8.358304    11.452198    8.405133    28.961603    -25.468132    -46.088249    111.270676    3.393462    -12.284970    11.006969    -4.153132    -17.781872    1.017758    6.279159    24.698915    -3.504250    -6.241627    -0.257141    -9.224277    0.000000    0.000000    0.000000    -10.341821    -12.882212    -3.819579    8.636743    20.901098    -10.124729    8.091488    -3.729576    -4.572432    0.000000    0.000000    0.000000    
23.213486    76.904968    32.466038    -5.116751    1.332750    98.491432    -9.862313    -5.706320    1.716584    9.574609    9.645403    1.399660    13.024209    9.950163    -2.796395    -12.967310    -6.614887    -6.266173    6.992410    4.442506    -16.846500    -37.016171    30.156452    -41.676849    19.313974    -35.815014    -122.680336    13.635172    -3.635494    -17.632307    -7.350249    -3.013738    -8.740947    10.539323    7.725640    28.886660    -26.380671    -45.398483    108.501617    3.856289    -11.879116    11.368380    -4.306695    -18.009321    1.113950    6.430824    24.615257    -4.190131    -6.089731    -0.036801    -9.611601    0.000000    0.000000    0.000000    -10.420531    -12.808414    -3.948839    8.692181    21.137142    -10.793010    8.202284    -3.744303    -4.949463    0.000000    0.000000    0.000000    
23.067886    76.885391    32.540558    -5.020055    1.365152    99.986343    -9.455266    -5.908190    2.505618    8.999323    10.422159    2.172265    13.243448    9.448682    -3.405156    -13.202730    -6.544019    -7.011709    6.341532    4.453962    -17.226408    -37.226616    30.938318    -42.642815    19.174809    -35.963287    -122.798096    13.774455    -4.026407    -17.574112    -8.189721    -3.263099    -9.737292    9.517900    6.570182    29.364506    -26.915949    -44.140026    105.933151    3.174391    -11.276877    10.716617    -4.547564    -18.171795    1.238545    6.680706    24.620876    -4.953527    -5.922841    0.159982    -9.991274    0.000000    0.000000    0.000000    -10.643497    -12.691399    -3.580762    9.137685    21.443802    -11.418736    8.361320    -4.075039    -5.898675    0.000000    0.000000    0.000000    
22.931850    76.839027    32.619946    -4.890237    1.321424    101.344658    -8.452989    -6.180079    3.092225    7.740048    11.402657    2.775513    13.139883    9.287451    -3.819366    -12.936966    -6.907775    -7.440877    5.939770    4.501274    -17.764082    -37.526272    31.490608    -42.920094    19.133287    -36.473625    -122.930626    14.625051    -4.711715    -17.137217    -8.958331    -3.710677    -9.998462    8.770065    5.267296    29.793674    -27.786198    -42.591469    103.077133    3.407256    -9.890783    10.538475    -4.697241    -18.414160    1.310878    6.827252    24.841290    -5.322370    -5.596723    0.227121    -10.455621    0.000000    0.000000    0.000000    -10.749014    -12.793118    -3.678596    9.371720    22.158487    -11.708864    8.133680    -4.422038    -6.603856    0.000000    0.000000    0.000000    
22.786076    76.765060    32.684383    -4.638098    1.333245    102.621117    -7.168293    -6.466516    3.751627    5.957018    12.917655    3.482146    13.080111    8.497693    -4.140088    -12.414195    -6.997868    -7.767540    6.418780    4.043011    -17.898996    -38.138355    32.589802    -43.563107    19.283085    -37.350418    -122.893585    15.015977    -5.544338    -16.859846    -9.798189    -4.662182    -10.441214    7.956691    4.920753    30.156462    -29.559959    -41.620934    99.277481    3.312045    -8.736656    10.231720    -4.948136    -18.560101    1.539269    7.252329    25.118525    -6.436765    -5.374537    0.088932    -10.393201    0.000000    0.000000    0.000000    -10.852106    -12.731802    -3.755554    9.608169    22.809229    -12.190837    8.236345    -4.911391    -7.031088    0.000000    0.000000    0.000000    
22.620216    76.674133    32.750713    -4.397158    1.322733    103.740891    -5.598287    -6.497671    4.257279    3.798865    13.973804    4.109618    13.007443    8.019939    -4.292930    -11.898853    -6.980442    -7.870847    6.707482    3.912134    -17.703268    -38.412373    33.621460    -43.952789    19.812469    -38.677490    -122.654167    15.487576    -6.352249    -16.622047    -10.460544    -5.460637    -10.458045    6.972773    4.967880    30.656370    -31.333689    -40.560783    95.214500    3.087168    -7.777412    9.828326    -5.184241    -18.784992    1.528745    7.579533    25.526276    -7.294066    -5.080163    -0.073217    -10.354214    0.000000    0.000000    0.000000    -10.862828    -12.988065    -4.052281    9.605893    23.856932    -12.665923    8.328933    -5.200427    -7.208825    0.000000    0.000000    0.000000    
22.454401    76.558876    32.818176    -4.089964    1.368474    104.806587    -4.013249    -6.397754    4.718854    1.523647    14.973084    4.743009    13.056462    7.853388    -4.438241    -11.396988    -7.444778    -7.987780    7.161465    3.770136    -17.443785    -38.608597    34.796036    -44.429287    20.718491    -40.228012    -122.067741    16.128876    -7.061222    -16.660740    -10.881772    -5.860332    -10.394172    5.966864    4.514426    31.435900    -33.024963    -39.084251    90.904839    3.336152    -6.608816    9.774600    -5.480448    -19.045143    1.598844    8.052889    26.142603    -8.537251    -4.835781    -0.268478    -10.097626    0.000000    0.000000    0.000000    -11.103511    -13.191101    -3.964360    10.100372    24.911398    -12.995351    8.255656    -5.601215    -7.799738    0.000000    0.000000    0.000000    
22.287607    76.435341    32.870857    -3.743496    1.421533    105.696907    -2.019852    -6.038235    5.020301    -1.402353    15.616035    5.319161    13.030968    7.854243    -4.457326    -10.663441    -7.748899    -7.880817    7.858343    3.917135    -17.023365    -38.630646    35.925362    -44.640068    21.735125    -42.070446    -121.517532    16.662319    -7.923832    -16.553160    -11.010486    -5.909605    -9.725948    4.996865    3.896149    32.180050    -34.570068    -37.404640    86.520752    4.028276    -5.463243    9.819701    -5.784721    -19.227629    1.219769    8.351344    26.771172    -9.182541    -4.742572    -0.489842    -9.811894    0.000000    0.000000    0.000000    -11.234614    -13.468023    -3.986748    10.340469    26.085478    -13.452936    8.442724    -5.900114    -8.026605    0.000000    0.000000    0.000000    
22.114986    76.288185    32.920357    -3.424522    1.494184    106.514137    0.240613    -5.457660    5.115076    -4.811102    15.872580    5.774703    12.623133    8.111707    -4.325484    -9.233843    -8.082591    -7.408708    8.561065    4.220780    -16.522234    -38.756760    36.937847    -44.275875    22.889940    -44.006580    -120.958496    16.979115    -8.683722    -16.411161    -11.122254    -6.099718    -8.680563    4.375345    3.247319    33.184174    -35.204548    -35.142738    82.620842    4.695858    -4.365511    9.495049    -6.124452    -19.495913    0.815896    8.647370    27.540850    -9.390904    -4.640458    -0.757454    -9.761490    0.000000    0.000000    0.000000    -11.394863    -13.806078    -3.976318    10.545783    27.269550    -14.131524    8.669315    -6.120981    -7.802744    0.000000    0.000000    0.000000    
21.953117    76.111008    32.970470    -3.120873    1.618907    107.269081    2.168640    -4.728538    5.233403    -7.869759    15.914847    6.245592    12.965969    8.199765    -4.093648    -9.054292    -8.254824    -7.158817    8.845218    4.792671    -15.865380    -38.121353    38.129864    -44.446877    23.976967    -45.921280    -120.324348    17.510448    -9.718135    -16.015869    -11.019342    -6.070546    -7.888818    3.308215    2.867664    34.216053    -36.046310    -32.886719    78.149933    5.602496    -3.375748    9.611788    -6.502934    -19.767857    0.345261    8.869665    28.400715    -9.082635    -4.500975    -1.145837    -9.925480    0.000000    0.000000    0.000000    -11.520284    -14.213608    -4.534088    10.260187    28.678371    -14.086396    8.825603    -6.455264    -7.482924    0.000000    0.000000    0.000000    
